# File created by Blade
# Date/Time:  Fri Jan 16 17:52:57 2015
#---------------------------------------------------------
:version 1.10
:name HOM
:units
  mass 1.0
  length 1.000000
  angle deg
:documentation
     Acclaim Skeleton File
:root
   axis xyz
   order TX TY TZ RX RY RZ
   position 0.000000 0.000000 0.000000
   orientation 0 0 0
:bonedata
   begin
      id 1
      name Spine_dum
      direction 0.000000 1.000000 0.000000
      length 7.170412
      axis 0.0 0.0 0.0 xyz
   end
   begin
      id 2
      name LeftUpLeg_dum
      direction 1.000000 0.000000 0.000000
      length 4.318350
      axis 0.0 0.0 0.0 xyz
   end
   begin
      id 3
      name RightUpLeg_dum
      direction -1.000000 0.000000 0.000000
      length 4.318350
      axis 0.0 0.0 0.0 xyz
   end
   begin
      id 4
      name Spine
      direction 0.000000 1.000000 0.000000
      length 0.000000
      axis 0.0 0.0 0.0 xyz
      dof rx ry rz
   end
   begin
      id 5
      name Spine_dum1
      direction 0.000000 1.000000 0.000000
      length 14.276153
      axis 0.0 0.0 0.0 xyz
   end
   begin
      id 6
      name Spine_dum2
      direction 0.000000 1.000000 0.000000
      length 10.718243
      axis 0.0 0.0 0.0 xyz
   end
   begin
      id 7
      name Spine_dum3
      direction 0.000000 1.000000 0.000000
      length 10.718243
      axis 0.0 0.0 0.0 xyz
   end
   begin
      id 8
      name Head
      direction 0.000000 1.000000 0.000000
      length 4.527550
      axis 0.0 0.0 0.0 xyz
      dof rx ry rz
   end
   begin
      id 9
      name LeftShoulder
      direction 1.000000 0.000000 0.000000
      length 7.058872
      axis 0.0 0.0 -90.0 xyz
      dof rx ry rz
   end
   begin
      id 10
      name LeftArm
      direction 1.000000 0.000000 0.000000
      length 10.955525
      axis 0.0 0.0 -90.0 xyz
      dof rx ry rz
   end
   begin
      id 11
      name LeftForeArm
      direction 1.000000 0.000000 0.000000
      length 8.193716
      axis 0.0 0.0 -90.0 xyz
      dof ry rz rx
   end
   begin
      id 12
      name LeftHand
      direction 0.000000 0.000000 0.000000
      length 0.000000
      axis 0.0 0.0 -90.0 xyz
      dof rx ry rz
   end
   begin
      id 13
      name LeftHand_dum1
      direction 0.000000 0.000000 0.000000
      length 0.000000
      axis 0.0 0.0 -90.0 xyz
   end
   begin
      id 14
      name LeftHand_dum2
      direction 1.000000 0.000000 0.000000
      length 3.937000
      axis 0.0 0.0 -90.0 xyz
   end
   begin
      id 15
      name LeftHandThumb1
      direction 0.000000 0.000000 1.000000
      length 3.937000
      axis 0.0 0.0 -90.0 xyz
      dof rx rz ry
   end
   begin
      id 16
      name RightShoulder
      direction -1.000000 0.000000 0.000000
      length 7.058872
      axis 0.0 0.0 90.0 xyz
      dof rx ry rz
   end
   begin
      id 17
      name RightArm
      direction -1.000000 0.000000 0.000000
      length 10.955525
      axis 0.0 0.0 90.0 xyz
      dof rx ry rz
   end
   begin
      id 18
      name RightForeArm
      direction -1.000000 0.000000 0.000000
      length 8.193716
      axis 0.0 0.0 90.0 xyz
      dof ry rz rx
   end
   begin
      id 19
      name RightHand
      direction 0.000000 0.000000 0.000000
      length 0.000000
      axis 0.0 0.0 90.0 xyz
      dof rx ry rz
   end
   begin
      id 20
      name RightHand_dum1
      direction 0.000000 0.000000 0.000000
      length 0.000000
      axis 0.0 0.0 90.0 xyz
   end
   begin
      id 21
      name RightHand_dum2
      direction -1.000000 0.000000 0.000000
      length 3.937000
      axis 0.0 0.0 90.0 xyz
   end
   begin
      id 22
      name RightHandThumb1
      direction 0.000000 0.000000 1.000000
      length 3.937000
      axis 0.0 0.0 90.0 xyz
      dof rx rz ry
   end
   begin
      id 23
      name LeftUpLeg
      direction 0.000000 -1.000000 0.000000
      length 17.323638
      axis 0.0 0.0 0.0 xyz
      dof rx ry rz
   end
   begin
      id 24
      name LeftLeg
      direction 0.000000 -1.000000 0.000000
      length 16.270368
      axis 0.0 0.0 0.0 xyz
      dof rx ry rz
   end
   begin
      id 25
      name LeftFoot
      direction 0.000000 -0.258819 0.965926
      length 4.922846
      axis 15.0 0.0 0.0 xyz
      dof rx ry rz
   end
   begin
      id 26
      name LeftToeBase
      direction 0.000000 0.000000 1.000000
      length 2.952750
      axis 0.0 0.0 0.0 xyz
      dof rx ry rz
   end
   begin
      id 27
      name RightUpLeg
      direction 0.000000 -1.000000 0.000000
      length 17.323638
      axis 0.0 0.0 0.0 xyz
      dof rx ry rz
   end
   begin
      id 28
      name RightLeg
      direction 0.000000 -1.000000 0.000000
      length 16.270368
      axis 0.0 0.0 0.0 xyz
      dof rx ry rz
   end
   begin
      id 29
      name RightFoot
      direction 0.000000 -0.258819 0.965926
      length 4.922846
      axis 15.0 0.0 0.0 xyz
      dof rx ry rz
   end
   begin
      id 30
      name RightToeBase
      direction 0.000000 0.000000 1.000000
      length 2.952750
      axis 0.0 0.0 0.0 xyz
      dof rx ry rz
   end
:hierarchy
   begin
      root Spine_dum LeftUpLeg_dum RightUpLeg_dum
      Spine_dum Spine
      LeftUpLeg_dum LeftUpLeg
      RightUpLeg_dum RightUpLeg
      Spine Spine_dum1 Spine_dum2 Spine_dum3
      Spine_dum1 Head
      Spine_dum2 LeftShoulder
      Spine_dum3 RightShoulder
      LeftShoulder LeftArm
      LeftArm LeftForeArm
      LeftForeArm LeftHand
      LeftHand LeftHand_dum1 LeftHand_dum2
      LeftHand_dum1 LeftHandThumb1
      RightShoulder RightArm
      RightArm RightForeArm
      RightForeArm RightHand
      RightHand RightHand_dum1 RightHand_dum2
      RightHand_dum1 RightHandThumb1
      LeftUpLeg LeftLeg
      LeftLeg LeftFoot
      LeftFoot LeftToeBase
      RightUpLeg RightLeg
      RightLeg RightFoot
      RightFoot RightToeBase
   end

# File created by Blade
# Date/Time:  Fri Jan 16 17:53:05 2015
# Frame Rate: 120.000 fps
#------------------------------------------------------
:FULLY-SPECIFIED
:DEGREES
869
root -3.175737 35.186832 -11.375340 -2.524506 1.592224 -7.131351
Spine 4.069491 -7.006263 6.755790
Head 1.165337 3.823907 -3.891984
LeftShoulder -22.286018 16.060964 -7.098057
LeftArm 26.208004 -30.636091 -70.882621
LeftForeArm 1.956947 0.000000 122.599795
LeftHand 2.580640 -0.000000 15.777501
LeftHandThumb1 -26.253704 0.000000 33.147579
RightShoulder -6.296524 -5.911239 0.546300
RightArm 4.467635 -20.822489 71.974266
RightForeArm -17.093902 -0.000000 22.789074
RightHand 0.759045 -0.000000 -1.350525
RightHandThumb1 -24.326973 -0.000000 -32.862282
LeftUpLeg 10.831831 1.407519 -3.956611
LeftLeg -8.825053 -0.000000 0.000000
LeftFoot -15.078328 29.665129 -6.405709
LeftToeBase 19.326554 -0.000000 -0.000000
RightUpLeg -2.485278 13.321801 8.289103
RightLeg 44.789672 -0.000000 -0.000000
RightFoot -27.290312 -21.910123 14.440642
RightToeBase -0.460386 -0.000000 0.000000
870
root -3.198741 35.192043 -11.376202 -2.601906 1.484500 -7.196963
Spine 4.179939 -6.925750 6.796934
Head 1.121158 3.848218 -3.877520
LeftShoulder -22.296629 16.048356 -7.078859
LeftArm 26.195009 -30.505521 -70.889110
LeftForeArm 2.025410 -0.000000 122.691991
LeftHand 2.556201 -0.000000 15.661959
LeftHandThumb1 -26.253704 0.000000 33.147579
RightShoulder -6.278137 -5.990650 0.552000
RightArm 4.517911 -20.624643 72.001104
RightForeArm -17.247306 -0.000000 22.745844
RightHand 0.827024 -0.000000 -1.299513
RightHandThumb1 -24.326973 -0.000000 -32.862282
LeftUpLeg 10.913468 1.456677 -3.865677
LeftLeg -8.840858 -0.000000 0.000000
LeftFoot -14.914442 29.834472 -6.048402
LeftToeBase 19.308364 -0.000000 -0.000000
RightUpLeg -2.331713 12.902051 8.461029
RightLeg 42.808067 -0.000000 -0.000000
RightFoot -27.060163 -21.487873 14.452414
RightToeBase -0.890501 -0.000000 0.000000
871
root -3.222240 35.196652 -11.377108 -2.654397 1.381412 -7.268969
Spine 4.248284 -6.847623 6.851664
Head 1.100159 3.869702 -3.869856
LeftShoulder -22.320427 16.067090 -7.078082
LeftArm 26.189542 -30.356483 -70.845122
LeftForeArm 1.999609 -0.000000 122.771700
LeftHand 2.603832 -0.000000 15.650947
LeftHandThumb1 -26.253704 0.000000 33.147579
RightShoulder -6.271040 -6.019741 0.564926
RightArm 4.504801 -20.651632 71.980799
RightForeArm -17.255728 -0.000000 22.758779
RightHand 0.769333 -0.000000 -1.528306
RightHandThumb1 -24.326973 -0.000000 -32.862282
LeftUpLeg 10.970910 1.462317 -3.776427
LeftLeg -8.849205 -0.000000 0.000000
LeftFoot -14.826587 30.028532 -5.794715
LeftToeBase 19.281156 -0.000000 -0.000000
RightUpLeg -2.201033 12.512764 8.646940
RightLeg 40.851200 -0.000000 -0.000000
RightFoot -26.956195 -21.092331 14.559031
RightToeBase -0.635244 -0.000000 0.000000
872
root -3.249912 35.200834 -11.376495 -2.697716 1.327324 -7.356453
Spine 4.277561 -6.813093 6.915976
Head 1.131099 3.916922 -3.849616
LeftShoulder -22.304022 16.084297 -7.038220
LeftArm 26.104990 -30.215044 -70.781594
LeftForeArm 1.960418 -0.000000 122.886520
LeftHand 2.631545 -0.000000 15.632515
LeftHandThumb1 -26.253704 0.000000 33.147579
RightShoulder -6.265472 -6.003588 0.585502
RightArm 4.439197 -20.735158 71.964093
RightForeArm -17.185568 0.000000 22.740249
RightHand 0.845117 -0.000000 -1.381916
RightHandThumb1 -24.326973 -0.000000 -32.862282
LeftUpLeg 11.019013 1.389649 -3.667959
LeftLeg -8.860622 -0.000000 0.000000
LeftFoot -14.919943 30.180231 -5.828377
LeftToeBase 19.450698 -0.000000 -0.000000
RightUpLeg -2.053882 12.152026 8.861337
RightLeg 38.937521 -0.000000 -0.000000
RightFoot -26.745452 -20.551302 14.789165
RightToeBase -1.058487 -0.000000 0.000000
873
root -3.273350 35.204759 -11.381226 -2.733038 1.175226 -7.426476
Spine 4.334685 -6.688253 6.979975
Head 1.125142 3.964325 -3.851719
LeftShoulder -22.287627 16.093758 -7.048099
LeftArm 26.036213 -30.103393 -70.630691
LeftForeArm 1.968040 -0.000000 123.003147
LeftHand 2.546477 -0.000000 15.694457
LeftHandThumb1 -26.253704 0.000000 33.147579
RightShoulder -6.252505 -6.024800 0.605833
RightArm 4.430550 -20.728496 71.943600
RightForeArm -17.223994 -0.000000 22.739496
RightHand 0.780491 -0.000000 -1.332098
RightHandThumb1 -24.326973 -0.000000 -32.862282
LeftUpLeg 11.064230 1.390138 -3.587762
LeftLeg -8.886057 -0.000000 0.000000
LeftFoot -14.985036 30.388271 -5.872464
LeftToeBase 19.471820 -0.000000 -0.000000
RightUpLeg -1.916204 11.877970 9.040394
RightLeg 37.052612 -0.000000 -0.000000
RightFoot -26.408195 -20.181017 14.700592
RightToeBase -1.550451 -0.000000 0.000000
874
root -3.297009 35.207704 -11.383986 -2.774385 1.016457 -7.479447
Spine 4.395216 -6.547190 7.012449
Head 1.120225 4.004900 -3.817397
LeftShoulder -22.274496 16.097255 -7.024109
LeftArm 25.972895 -29.968919 -70.535413
LeftForeArm 1.884906 -0.000000 123.119803
LeftHand 2.461789 -0.000000 15.779218
LeftHandThumb1 -26.253704 0.000000 33.147579
RightShoulder -6.266466 -6.047857 0.644611
RightArm 4.432064 -20.707306 71.921817
RightForeArm -17.290715 0.000000 22.700749
RightHand 0.710439 -0.000000 -1.321100
RightHandThumb1 -24.326973 -0.000000 -32.862282
LeftUpLeg 11.130496 1.384850 -3.519409
LeftLeg -8.931005 -0.000000 0.000000
LeftFoot -14.945182 30.592877 -5.771345
LeftToeBase 19.477370 -0.000000 -0.000000
RightUpLeg -1.769342 11.640935 9.195617
RightLeg 35.231133 -0.000000 -0.000000
RightFoot -26.197394 -19.781550 14.711077
RightToeBase -1.991969 -0.000000 0.000000
875
root -3.321994 35.212601 -11.384209 -2.823119 0.892935 -7.553874
Spine 4.451063 -6.466294 7.072062
Head 1.125153 4.060468 -3.800695
LeftShoulder -22.284587 16.108825 -7.028569
LeftArm 25.917364 -29.867700 -70.474629
LeftForeArm 1.927333 0.000000 123.244259
LeftHand 2.483007 -0.000000 15.658258
LeftHandThumb1 -26.253704 0.000000 33.147579
RightShoulder -6.277816 -6.089352 0.686877
RightArm 4.449020 -20.767940 71.870029
RightForeArm -17.247133 -0.000000 22.666123
RightHand 0.763784 -0.000000 -1.524895
RightHandThumb1 -24.326973 -0.000000 -32.862282
LeftUpLeg 11.203522 1.322872 -3.429964
LeftLeg -8.966958 -0.000000 0.000000
LeftFoot -14.879089 30.834790 -5.609525
LeftToeBase 19.431563 -0.000000 -0.000000
RightUpLeg -1.593467 11.462441 9.390031
RightLeg 33.462804 -0.000000 -0.000000
RightFoot -26.006475 -19.564243 14.776054
RightToeBase -2.217259 -0.000000 0.000000
